<!DOCTYPE svg PUBLIC "-//W3C//DTD SVG 1.1//EN" "http://www.w3.org/Graphics/SVG/1.1/DTD/svg11.dtd">
<!-- Uploaded to: SVG Repo, www.svgrepo.com, Transformed by: SVG Repo Mixer Tools -->
<svg height="111px" width="111px" version="1.1" id="Layer_1" xmlns="http://www.w3.org/2000/svg" xmlns:xlink="http://www.w3.org/1999/xlink" viewBox="-49.15 -49.15 589.82 589.82" xml:space="preserve" fill="#000000" stroke="#000000" transform="rotate(0)matrix(1, 0, 0, 1, 0, 0)">
<g id="SVGRepo_bgCarrier" stroke-width="0"/>
<g id="SVGRepo_tracerCarrier" stroke-linecap="round" stroke-linejoin="round" stroke="#CCCCCC" stroke-width="9.830400000000001"/>
<g id="SVGRepo_iconCarrier"> <path style="fill:#3A556A;" d="M170.812,0h-0.899c-7.296,0-13.211,5.915-13.211,13.213V491.52h27.32V13.213 C184.022,5.915,178.108,0,170.812,0z"/> <path style="fill:#DC8744;" d="M228.952,425.11H111.771c-6.995,0-12.667,5.672-12.667,12.669v53.741h142.519v-53.741 C241.622,430.783,235.95,425.11,228.952,425.11z"/> <path style="fill:#E56353;" d="M392.416,162.682c-83.4-38.322-125.064,38.316-208.394-0.001c-0.002-58.06-0.002-87.097,0-145.159 c83.33,38.314,124.994-38.33,208.394,0.002C392.416,75.584,392.416,104.621,392.416,162.682z"/> </g>
</svg>